<svg width="399" height="386" viewBox="0 0 399 386" fill="none" xmlns="http://www.w3.org/2000/svg">
<rect width="399" height="386" rx="193" fill="url(#paint0_linear_1019_27)"/>
<path d="M198.61 81.8169L100.969 130.313C100.183 130.703 99.79 130.898 99.79 131.208C99.79 131.518 100.183 131.714 100.969 132.104L198.61 180.6L198.61 180.6C199.046 180.817 199.265 180.925 199.499 180.925C199.734 180.925 199.952 180.817 200.389 180.6L200.389 180.6L298.029 132.104C298.816 131.714 299.209 131.518 299.209 131.208C299.209 130.898 298.816 130.703 298.029 130.313L200.389 81.8169L200.389 81.8169C199.952 81.6 199.734 81.4916 199.499 81.4916C199.265 81.4916 199.046 81.6 198.61 81.8169L198.61 81.8169Z" fill="#222222"/>
<path fill-rule="evenodd" clip-rule="evenodd" d="M136.789 174.817L197.721 205.081L197.721 205.081L197.721 205.081C198.594 205.515 199.031 205.732 199.5 205.732C199.97 205.732 200.406 205.515 201.279 205.081L201.279 205.081L201.28 205.081L262.211 174.817L298.03 192.608C298.817 192.998 299.21 193.194 299.21 193.504C299.21 193.813 298.817 194.009 298.03 194.399L200.39 242.895L200.39 242.895C199.953 243.112 199.735 243.22 199.5 243.22C199.266 243.22 199.047 243.112 198.611 242.895L198.611 242.895L100.97 194.399C100.184 194.009 99.791 193.813 99.791 193.504C99.791 193.194 100.184 192.998 100.97 192.608L136.789 174.817Z" fill="#222222"/>
<path fill-rule="evenodd" clip-rule="evenodd" d="M262.218 237.109L298.03 254.897C298.817 255.287 299.21 255.482 299.21 255.792C299.21 256.102 298.817 256.298 298.03 256.688L200.39 305.184L200.39 305.184C199.953 305.401 199.735 305.509 199.5 305.509C199.266 305.509 199.047 305.401 198.611 305.184L198.611 305.184L100.97 256.688C100.184 256.298 99.791 256.102 99.791 255.792C99.791 255.482 100.184 255.287 100.97 254.897L136.783 237.109L197.721 267.376L197.721 267.376L197.721 267.376C198.595 267.81 199.031 268.027 199.501 268.027C199.97 268.027 200.406 267.81 201.28 267.376L201.28 267.376L201.28 267.376L262.218 237.109Z" fill="#222222"/>
<defs>
<linearGradient id="paint0_linear_1019_27" x1="278" y1="29" x2="61.5" y2="313.5" gradientUnits="userSpaceOnUse">
<stop stop-color="#CFB6FC"/>
<stop offset="1" stop-color="#5685FF"/>
</linearGradient>
</defs>
</svg>
