<svg width="399" height="386" viewBox="0 0 399 386" fill="none" xmlns="http://www.w3.org/2000/svg">
<rect width="399" height="386" rx="193" fill="url(#paint0_linear_1019_70)"/>
<path d="M230.375 149C230.375 165.059 216.719 178.375 199.5 178.375C182.281 178.375 168.625 165.059 168.625 149C168.625 132.941 182.281 119.625 199.5 119.625C216.719 119.625 230.375 132.941 230.375 149Z" stroke="#222222" stroke-width="8" stroke-linecap="round"/>
<path d="M218.89 131.714C221.399 127.556 225.155 124.18 229.702 122.033C234.251 119.887 239.374 119.075 244.418 119.71C249.462 120.346 254.178 122.397 257.975 125.583C261.769 128.768 264.471 132.939 265.764 137.558C267.057 142.175 266.891 147.053 265.284 151.582C263.677 156.114 260.692 160.112 256.683 163.057C252.672 166.002 247.822 167.754 242.744 168.072C237.666 168.391 232.612 167.26 228.224 164.835" stroke="#2A4157" stroke-opacity="0.24" stroke-width="7"/>
<path d="M180.985 131.339C178.476 127.181 174.72 123.805 170.173 121.658C165.624 119.512 160.501 118.7 155.457 119.335C150.413 119.971 145.697 122.022 141.9 125.208C138.106 128.393 135.404 132.564 134.111 137.183C132.818 141.8 132.984 146.678 134.591 151.207C136.198 155.739 139.183 159.737 143.192 162.682C147.203 165.627 152.053 167.379 157.131 167.697C162.209 168.016 167.263 166.885 171.651 164.46" stroke="#2A4157" stroke-opacity="0.24" stroke-width="7"/>
<path d="M286.415 242.556L282.948 243.032V243.032L286.415 242.556ZM212 200.081L209.468 197.665L204.864 202.49L211.45 203.537L212 200.081ZM259.595 243.625L256.245 244.638L256.997 247.125H259.595V243.625ZM240.05 191.5C256.912 191.5 267.279 201.959 273.752 214.038C280.25 226.166 282.438 239.317 282.948 243.032L289.883 242.08C289.334 238.08 287.007 223.954 279.922 210.732C272.811 197.462 260.525 184.5 240.05 184.5V191.5ZM214.532 202.497C220.691 196.042 228.897 191.5 240.05 191.5V184.5C226.714 184.5 216.748 190.033 209.468 197.665L214.532 202.497ZM211.45 203.537C239.524 208.002 251.254 228.128 256.245 244.638L262.945 242.612C257.553 224.776 244.349 201.681 212.55 196.624L211.45 203.537ZM285.44 240.125H259.595V247.125H285.44V240.125ZM282.948 243.032C282.711 241.304 284.131 240.125 285.44 240.125V247.125C287.935 247.125 290.281 244.983 289.883 242.08L282.948 243.032Z" fill="#2A4157" fill-opacity="0.24"/>
<path d="M186.862 200.018L187.412 203.475L193.998 202.427L189.395 197.602L186.862 200.018ZM112.447 242.493L115.914 242.969H115.914L112.447 242.493ZM139.267 243.562V247.062H141.865L142.617 244.575L139.267 243.562ZM158.812 191.438C169.965 191.438 178.171 195.979 184.33 202.434L189.395 197.602C182.114 189.971 172.148 184.438 158.812 184.438V191.438ZM115.914 242.969C116.424 239.255 118.612 226.103 125.11 213.976C131.583 201.896 141.95 191.438 158.812 191.438V184.438C138.337 184.438 126.051 197.4 118.94 210.67C111.855 223.892 109.528 238.018 108.979 242.017L115.914 242.969ZM113.422 240.062C114.73 240.062 116.151 241.242 115.914 242.969L108.979 242.017C108.581 244.92 110.927 247.062 113.422 247.062V240.062ZM139.267 240.062H113.422V247.062H139.267V240.062ZM142.617 244.575C147.608 228.065 159.338 207.94 187.412 203.475L186.312 196.562C154.513 201.619 141.309 224.714 135.917 242.55L142.617 244.575Z" fill="#2A4157" fill-opacity="0.24"/>
<path d="M199.5 199.062C258.887 199.062 263.114 256.649 263.414 264.846C263.435 265.398 262.99 265.812 262.437 265.812H136.562C136.01 265.812 135.565 265.398 135.586 264.846C135.886 256.649 140.113 199.062 199.5 199.062Z" stroke="#222222" stroke-width="8" stroke-linecap="round"/>
<defs>
<linearGradient id="paint0_linear_1019_70" x1="278" y1="29" x2="61.5" y2="313.5" gradientUnits="userSpaceOnUse">
<stop stop-color="#CFB6FC"/>
<stop offset="1" stop-color="#5685FF"/>
</linearGradient>
</defs>
</svg>
